<svg width="167" height="56" viewBox="0 0 167 56" fill="none" xmlns="http://www.w3.org/2000/svg" aria-hidden="true">
    <g clip-path="url(#clip0_1140_148)">
        <path d="M126.544 13.3578H166.645L161.975 0.308258L126.544 13.3578Z" fill="white" />
        <path
            d="M9.2383 53.3798C8.37538 53.3798 8.07082 52.7633 8.07082 51.7871V48.4991H6.9541V52.1468C6.9541 53.6881 7.81702 54.3046 9.2383 54.3046C10.6596 54.3046 11.5225 53.6881 11.5225 52.1468V48.4991H10.4058V51.7871C10.4058 52.7633 10.1012 53.3798 9.2383 53.3798ZM12.7915 49.989V54.2018H13.8574V52.1468C13.8574 51.633 14.0097 50.7596 14.8219 50.7596C15.5325 50.7596 15.5325 51.4789 15.5325 51.9926V54.2532H16.5985V51.5816C16.5985 50.6569 16.1924 49.9376 15.1772 49.9376C14.6188 49.9376 14.162 50.1431 13.8067 50.6055V50.0404H12.7915V49.989ZM17.8167 49.989H18.8827V54.2018H17.8167V49.989ZM17.8167 48.1394H18.8827V49.167H17.8167V48.1394ZM23.9079 49.989H22.7912L21.8267 53.0202H21.776L20.7608 49.989H19.5933L21.1669 54.2018H22.3851L23.9079 49.989ZM26.1413 49.8862C24.8723 49.8862 24.2125 50.9137 24.2125 52.0954C24.2125 53.4826 25.0246 54.2532 26.3951 54.2532C26.9535 54.2532 27.4103 54.1504 27.8164 53.8936V53.0202C27.4103 53.2257 26.9535 53.4312 26.4459 53.4312C25.786 53.4312 25.3292 53.0715 25.2784 52.3523H28.1717C28.121 50.9651 27.7149 49.8862 26.1413 49.8862ZM25.2784 51.6844C25.3292 51.1193 25.6337 50.7082 26.2429 50.7082C26.852 50.7082 27.1058 51.1706 27.1058 51.6844H25.2784ZM29.0854 49.989V54.2018H30.1514V52.6605C30.1514 52.044 30.1514 50.9651 31.0143 50.9651C31.2173 50.9651 31.4204 51.0165 31.5219 51.0679V49.989C31.4204 49.9376 31.3188 49.9376 31.1666 49.9376C30.5067 49.9376 30.1006 50.6055 30.0498 51.0165V50.0404H29.0854V49.989ZM33.9076 50.6569C34.3137 50.6569 34.5675 50.7082 34.872 50.8624L34.9228 50.0404C34.5675 49.989 34.2629 49.8862 33.7553 49.8862C32.8924 49.8862 32.131 50.2972 32.131 51.1706C32.131 52.7119 34.0091 52.1468 34.0091 52.9688C34.0091 53.3798 33.5523 53.4826 33.2985 53.4826C32.9432 53.4826 32.5878 53.3798 32.2325 53.2257L32.1818 54.1504C32.5878 54.2532 32.9939 54.3046 33.4 54.3046C34.2629 54.3046 35.1258 53.8936 35.1258 52.9174C35.1258 51.3761 33.2477 51.8385 33.2477 51.1706C33.2477 50.811 33.603 50.6569 33.9076 50.6569ZM36.0903 49.989H37.1562V54.2018H36.0903V49.989ZM36.0903 48.1394H37.1562V49.167H36.0903V48.1394Z"
            fill="white" />
        <path
            d="M38.679 52.9174C38.679 53.7394 39.1359 54.3046 39.9988 54.3046C40.3034 54.3046 40.5572 54.2532 40.811 54.2018L40.7602 53.3284C40.6587 53.3798 40.4556 53.4312 40.2526 53.4312C39.8465 53.4312 39.745 53.0715 39.745 52.7119V50.7596H40.7094V49.9376H39.745V48.756L38.679 49.1156V49.9376H37.8669V50.7596H38.679V52.9174ZM44.0088 54.1504L45.5824 49.989H44.4657L43.4505 53.0715L42.4353 49.989H41.217L42.7906 54.4073C42.7906 54.8697 42.5368 55.178 42.08 55.178C41.8262 55.178 41.6739 55.178 41.5216 55.1266L41.4708 55.9486C41.5724 56 41.7246 56 41.8262 56.0514H42.486C43.4505 55.8459 43.7043 54.9725 44.0088 54.1504Z"
            fill="white" />
        <path
            d="M48.1711 52.0954C48.1711 53.3284 48.9833 54.2532 50.3538 54.2532C51.7243 54.2532 52.5365 53.2771 52.5365 52.0954C52.5365 50.7083 51.572 49.8862 50.3538 49.8862C49.1356 49.8862 48.1711 50.7083 48.1711 52.0954ZM51.4198 51.9927C51.4198 52.7119 51.2167 53.4312 50.3538 53.4312C49.5416 53.4312 49.2878 52.6606 49.2878 51.9927C49.2878 51.3761 49.6432 50.7596 50.3538 50.7596C51.0644 50.7083 51.4198 51.3248 51.4198 51.9927ZM55.379 48.8073C55.6328 48.8073 55.7343 48.9101 55.8359 48.9615L55.9374 48.0367C55.7343 47.9853 55.4298 47.9339 55.1252 47.9339C54.2623 47.9339 53.8055 48.4991 53.8055 49.3725V49.9376H52.9933V50.7596H53.8055V54.1505H54.8714V50.7596H55.8359V49.9376H54.8714V49.4239C54.9222 49.1156 55.0237 48.8073 55.379 48.8073ZM60.5058 48.4991L58.3231 54.2018H59.4906L59.9982 52.9174H62.2824L62.79 54.2018H64.059L61.8255 48.4991H60.5058ZM60.3027 51.9927L61.1149 49.6294L61.9271 51.9927H60.3027ZM64.7696 49.989V55.8973H65.8356V53.6881C66.1909 54.1505 66.597 54.2532 67.0538 54.2532C68.3736 54.2532 68.8304 53.1743 68.8304 52.044C68.8304 50.8624 68.3736 49.8349 67.1046 49.8349C66.4447 49.8349 66.0386 50.1431 65.8356 50.5541V49.9376H64.7696V49.989ZM66.8508 50.7083C67.5614 50.7083 67.7644 51.4789 67.7644 52.044C67.7644 52.6092 67.5614 53.4312 66.8508 53.4312C66.1401 53.4312 65.8863 52.6606 65.8863 52.044C65.8356 51.4789 66.1401 50.7083 66.8508 50.7083ZM72.1298 54.3046C73.4496 54.3046 73.9064 53.2257 73.9064 52.0954C73.9064 50.9138 73.4495 49.8862 72.1805 49.8862C71.5207 49.8862 71.1146 50.1945 70.9116 50.6055V49.989H69.8964V55.8973H70.9623V53.6881C71.2669 54.1505 71.673 54.3046 72.1298 54.3046ZM71.876 50.7083C72.5866 50.7083 72.7897 51.4789 72.7897 52.044C72.7897 52.6092 72.5866 53.4312 71.876 53.4312C71.1654 53.4312 70.9116 52.6606 70.9116 52.044C70.9116 51.4789 71.1654 50.7083 71.876 50.7083ZM74.8708 48.0367V54.2018H75.9368V48.0367H74.8708ZM77.155 49.989H78.221V54.2018H77.155V49.989ZM77.155 48.1395H78.221V49.167H77.155V48.1395ZM81.1143 49.8862C79.8453 49.8862 79.1854 50.9138 79.1854 52.0954C79.1854 53.4826 79.9976 54.2532 81.3681 54.2532C81.9265 54.2532 82.3833 54.1505 82.7894 53.8936V53.0202C82.3833 53.2257 81.9264 53.4312 81.4188 53.4312C80.759 53.4312 80.3021 53.0716 80.2514 52.3523H83.1447C83.0939 50.9651 82.6879 49.8862 81.1143 49.8862ZM80.2514 51.6844C80.3021 51.1193 80.6067 50.7083 81.2158 50.7083C81.8249 50.7083 82.0787 51.1706 82.0787 51.6844H80.2514ZM87.9161 54.2018V48.0881H86.7994V50.5028C86.4948 50.0917 86.0888 49.9376 85.5812 49.9376C84.3122 49.9376 83.8553 50.9651 83.8553 52.1468C83.8553 53.2771 84.3122 54.356 85.5812 54.356C86.0888 54.356 86.5456 54.2018 86.8502 53.7908V54.2532H87.9161V54.2018ZM85.8857 53.4312C85.1751 53.4312 84.972 52.6606 84.972 52.044C84.972 51.4789 85.1751 50.7083 85.8857 50.7083C86.5964 50.7083 86.8502 51.4789 86.8502 52.044C86.7994 52.6606 86.5964 53.4312 85.8857 53.4312ZM92.6368 53.3798C92.1799 53.3798 91.7231 53.2257 91.3678 53.0202L91.2663 54.0477C91.8246 54.2018 92.0784 54.2532 92.6875 54.2532C93.8043 54.2532 94.8195 53.7908 94.8195 52.5064C94.8195 50.6055 92.3322 51.0165 92.3322 50.0404C92.3322 49.4239 92.8398 49.2697 93.1951 49.2697C93.6012 49.2697 94.0073 49.3725 94.3626 49.5266L94.4641 48.6018C94.0581 48.4477 93.6012 48.3963 93.0936 48.3963C92.0784 48.3963 91.114 48.8587 91.114 50.1431C91.114 52.044 93.6012 51.5817 93.6012 52.6606C93.652 53.1743 93.0936 53.3798 92.6368 53.3798ZM97.8143 50.7083C98.1696 50.7083 98.3727 50.7596 98.5249 50.8624L98.6264 49.989C98.3219 49.8862 98.0173 49.8349 97.5605 49.8349C96.2407 49.8349 95.5301 50.811 95.5301 51.9927C95.5301 53.2771 96.2407 54.2018 97.5605 54.2018C98.0173 54.2018 98.3219 54.1505 98.6264 54.0477L98.5757 53.1229C98.3727 53.2257 98.0681 53.3284 97.7635 53.3284C97.0021 53.3284 96.6468 52.7119 96.6468 51.9413C96.6976 51.2734 97.1544 50.7083 97.8143 50.7083ZM99.5909 49.989H100.657V54.2018H99.5909V49.989ZM99.5909 48.1395H100.657V49.167H99.5909V48.1395ZM103.55 49.8862C102.281 49.8862 101.621 50.9138 101.621 52.0954C101.621 53.4826 102.433 54.2532 103.804 54.2532C104.362 54.2532 104.819 54.1505 105.225 53.8936V53.0202C104.819 53.2257 104.362 53.4312 103.855 53.4312C103.195 53.4312 102.738 53.0716 102.687 52.3523H105.581C105.53 50.9651 105.073 49.8862 103.55 49.8862ZM102.636 51.6844C102.687 51.1193 102.992 50.7083 103.601 50.7083C104.21 50.7083 104.464 51.1706 104.464 51.6844H102.636ZM110.301 54.2018V51.5303C110.301 50.6055 109.895 49.8862 108.88 49.8862C108.322 49.8862 107.865 50.0917 107.509 50.5541V49.989H106.494V54.2018H107.56V52.1468C107.56 51.633 107.712 50.7596 108.525 50.7596C109.235 50.7596 109.235 51.4789 109.235 51.9927V54.2532H110.301V54.2018ZM113.448 50.7083C113.804 50.7083 114.007 50.7596 114.159 50.8624L114.26 49.989C113.956 49.8862 113.651 49.8349 113.195 49.8349C111.875 49.8349 111.164 50.811 111.164 51.9927C111.164 53.2771 111.875 54.2018 113.195 54.2018C113.651 54.2018 113.956 54.1505 114.26 54.0477L114.21 53.1229C114.007 53.2257 113.702 53.3284 113.398 53.3284C112.636 53.3284 112.281 52.7119 112.281 51.9413C112.332 51.2734 112.788 50.7083 113.448 50.7083ZM116.798 49.8862C115.529 49.8862 114.87 50.9138 114.87 52.0954C114.87 53.4826 115.682 54.2532 117.052 54.2532C117.611 54.2532 118.067 54.1505 118.474 53.8936V53.0202C118.067 53.2257 117.611 53.4312 117.103 53.4312C116.443 53.4312 115.986 53.0716 115.936 52.3523H118.829C118.778 50.9651 118.321 49.8862 116.798 49.8862ZM115.885 51.6844C115.936 51.1193 116.24 50.7083 116.849 50.7083C117.458 50.7083 117.712 51.1706 117.712 51.6844H115.885ZM120.605 53.4826C120.25 53.4826 119.895 53.3798 119.54 53.2257L119.489 54.0991C119.895 54.2018 120.301 54.2532 120.707 54.2532C121.57 54.2532 122.433 53.8422 122.433 52.8661C122.433 51.3248 120.555 51.7872 120.555 51.1193C120.555 50.7596 120.91 50.6569 121.215 50.6569C121.621 50.6569 121.874 50.7083 122.179 50.8624L122.23 50.0404C121.874 49.989 121.57 49.8862 121.062 49.8862C120.199 49.8862 119.438 50.2972 119.438 51.1706C119.438 52.7119 121.316 52.1468 121.316 52.9688C121.316 53.3798 120.91 53.4826 120.605 53.4826ZM6.90334 42.9505H10.1012V23.222H17.0553V20.3963H0V23.222H6.90334V42.9505ZM20.1009 20.3963V42.9505H23.2988V32.6752H33.9584V42.9505H37.1562V20.3963H33.9584V29.8495H23.2988V20.3963H20.1009ZM63.1961 26.0991C63.1961 22.2459 60.0997 20.3963 55.9374 20.3963H45.7347V42.9505H55.1252C59.1353 42.9505 63.8052 41.8202 63.8052 36.4257C63.8052 33.7028 62.2824 32.0587 59.2875 31.4422V31.3908C61.7748 30.5688 63.1961 28.9761 63.1961 26.0991ZM51.6736 24.6606H53.3994C55.379 24.6606 57.3079 24.8661 57.3079 26.9211C57.3079 28.822 55.2775 29.3358 53.3486 29.3358H51.6736V24.6606ZM53.3994 38.6862H51.6228V33.3945H53.4502C55.4806 33.3945 57.8155 33.6 57.8155 36.0661C57.8155 38.378 55.5821 38.6862 53.3994 38.6862ZM67.2061 20.3963H73.145V42.9505H67.2061V20.3963ZM92.586 35.7064H92.5353L84.972 20.3963H77.4088V42.9505H82.6878V27.5376H82.7386L90.5556 42.9505H97.9158V20.3963H92.586V35.7064ZM115.986 24.455C117.408 24.455 119.54 24.8147 121.418 25.8936L121.874 20.9615C119.692 20.1394 116.595 19.9853 115.123 19.9853C106.951 19.9853 101.063 23.222 101.063 31.7505C101.063 40.2789 107.916 43.3101 113.854 43.3101C115.885 43.3101 118.727 43.2587 122.484 42.2826V29.7468H113.245V34.011H116.697V38.4807C116.139 38.7376 115.377 38.8917 114.616 38.8917C110.301 38.8917 107.205 36.2202 107.205 31.8018C107.205 26.5101 111.164 24.455 115.986 24.455ZM142.229 24.6606V20.3963H126.544V42.9505H142.585V38.6862H132.483V33.6H141.671V29.3358H132.483V24.6606H142.229ZM161.315 35.7064H161.264L153.752 20.3963H146.188V42.9505H151.467V27.5376H151.518L159.285 42.9505H166.645V20.3963H161.315V35.7064Z"
            fill="white" />
    </g>
    <defs>
        <clipPath id="clip0_1140_148">
            <rect width="167" height="56" fill="white" />
        </clipPath>
    </defs>
</svg>
